<?xml version="1.0" encoding="UTF-8"?>
<!DOCTYPE svg PUBLIC "-//W3C//DTD SVG 1.1//EN" "http://www.w3.org/Graphics/SVG/1.1/DTD/svg11.dtd">
<!-- Creator: CorelDRAW X6 -->
<svg xmlns="http://www.w3.org/2000/svg" xml:space="preserve" width="7.11111in" height="7.11111in" version="1.1" style="shape-rendering:geometricPrecision; text-rendering:geometricPrecision; image-rendering:optimizeQuality; fill-rule:evenodd; clip-rule:evenodd"
viewBox="0 0 7111 7111"
 xmlns:xlink="http://www.w3.org/1999/xlink">
 <defs>
  <style type="text/css">
   <![CDATA[
    .fil0 {fill:black;fill-rule:nonzero}
   ]]>
  </style>
 </defs>
 <g id="Layer_x0020_1">
  <metadata id="CorelCorpID_0Corel-Layer"/>
  <path class="fil0" d="M4129 7065c-30,5 -59,9 -89,13 30,-4 60,-9 89,-13z"/>
  <path class="fil0" d="M4200 7053c-14,3 -28,5 -42,7 14,-2 28,-5 42,-7z"/>
  <path class="fil0" d="M3960 7088c-35,4 -70,7 -105,10 35,-3 70,-6 105,-10z"/>
  <path class="fil0" d="M4029 7080c-17,2 -33,4 -50,6 17,-2 33,-4 50,-6z"/>
  <path class="fil0" d="M4297 7033c-12,3 -25,5 -38,8 13,-3 25,-5 38,-8z"/>
  <path class="fil0" d="M4537 6974c-10,3 -20,6 -30,8 10,-3 20,-6 30,-8z"/>
  <path class="fil0" d="M4464 6994c-11,3 -22,6 -33,9 11,-3 22,-6 33,-9z"/>
  <path class="fil0" d="M4369 7017c-12,3 -23,5 -35,8 12,-3 23,-5 35,-8z"/>
  <path class="fil0" d="M3855 7098c-19,2 -37,3 -56,4 19,-1 38,-3 56,-4z"/>
  <path class="fil0" d="M7111 3556c0,-1963 -1592,-3556 -3556,-3556 -1963,0 -3556,1592 -3556,3556 0,1963 1592,3556 3556,3556 21,0 42,0 63,-1l0 -2768 -764 0 0 -890 764 0 0 -655c0,-760 464,-1173 1142,-1173 325,0 604,24 685,35l0 794 -467 0c-369,0 -440,175 -440,432l0 567 882 0 -115 890 -767 0 0 2631c1486,-426 2574,-1795 2574,-3418z"/>
  <path class="fil0" d="M3790 7103c-37,2 -74,4 -111,6 37,-1 74,-3 111,-6z"/>
  <path class="fil0" d="M3677 7109c-20,1 -39,1 -59,1 20,0 39,-1 59,-1z"/>
 </g>
</svg>
