<?xml version="1.0" encoding="UTF-8"?>
<!DOCTYPE svg PUBLIC "-//W3C//DTD SVG 1.1//EN" "http://www.w3.org/Graphics/SVG/1.1/DTD/svg11.dtd">
<!-- Creator: CorelDRAW X6 -->
<svg xmlns="http://www.w3.org/2000/svg" xml:space="preserve" width="4.91666in" height="4.33333in" version="1.1" style="shape-rendering:geometricPrecision; text-rendering:geometricPrecision; image-rendering:optimizeQuality; fill-rule:evenodd; clip-rule:evenodd"
viewBox="0 0 4917 4333"
 xmlns:xlink="http://www.w3.org/1999/xlink">
 <defs>
  <style type="text/css">
   <![CDATA[
    .fil0 {fill:black;fill-rule:nonzero}
   ]]>
  </style>
 </defs>
 <g id="Layer_x0020_1">
  <metadata id="CorelCorpID_0Corel-Layer"/>
  <path class="fil0" d="M4517 406c-257,-257 -598,-398 -961,-398 -364,0 -705,142 -963,399l-134 134 -136 -136c-257,-257 -600,-400 -964,-400 -363,0 -704,142 -960,398 -257,257 -399,599 -398,962 0,364 143,704 400,961l1956 1956c27,27 64,42 99,42 35,0 72,-14 99,-41l1960 -1953c257,-257 399,-599 399,-963 1,-364 -140,-705 -397,-963zm-200 1726l-1861 1854 -1857 -1857c-204,-204 -317,-475 -317,-764 0,-289 111,-559 316,-762 203,-203 474,-316 761,-316 289,0 560,113 765,317l235 235c55,55 144,55 199,0l233 -233c204,-204 476,-317 764,-317 288,0 558,112 762,316 204,204 316,475 316,764 1,289 -111,559 -316,764z"/>
 </g>
</svg>
