<?xml version="1.0" encoding="utf-8"?>
<!-- Generator: Adobe Illustrator 21.0.0, SVG Export Plug-In . SVG Version: 6.00 Build 0)  -->
<svg version="1.1" id="Layer_1" xmlns="http://www.w3.org/2000/svg" xmlns:xlink="http://www.w3.org/1999/xlink" x="0px" y="0px"
	 viewBox="0 0 104.5 44.4" style="enable-background:new 0 0 104.5 44.4;" xml:space="preserve">
<style type="text/css">
	.st0{fill:#FFFFFF;}
	.st1{fill:#88BEFF;}
</style>
<g>
	<path class="st0" d="M58.6,9.2h2.9c3.4,0,5,1.9,5,4.7V14c0,2.8-1.6,4.8-5,4.8h-2.9V9.2z M61.5,17.5c2.2,0,3.2-1.2,3.2-3.4V14
		c0-2.1-0.9-3.3-3.2-3.3h-1v6.8H61.5z"/>
	<path class="st0" d="M67.6,11.8h1.6v1.3c0.4-0.9,1.1-1.4,2.3-1.4v1.5c-1.4,0-2.3,0.5-2.3,2v3.7h-1.6V11.8z"/>
	<path class="st0" d="M72.1,15.4v-0.1c0-2.2,1.6-3.7,3.6-3.7c2.1,0,3.6,1.4,3.6,3.6v0.1c0,2.2-1.6,3.6-3.6,3.6
		C73.6,19,72.1,17.6,72.1,15.4z M77.7,15.4L77.7,15.4c0-1.6-0.7-2.4-1.9-2.4s-2,0.9-2,2.3v0.1c0,1.4,0.7,2.4,2,2.4
		C77,17.8,77.7,16.9,77.7,15.4z"/>
	<path class="st0" d="M80.3,11.8h1.6V13c0.4-0.7,1.3-1.3,2.3-1.3c1.8,0,3.1,1.3,3.1,3.6v0.1c0,2.3-1.3,3.7-3.1,3.7
		c-1.1,0-1.9-0.6-2.3-1.2v3.5h-1.6V11.8z M85.7,15.4v-0.1c0-1.6-0.8-2.3-1.9-2.3s-1.9,0.8-1.9,2.3v0.1c0,1.6,0.8,2.3,2,2.3
		C85,17.7,85.7,16.9,85.7,15.4z"/>
	<path class="st0" d="M88,16.7h1.5c0.1,0.7,0.4,1.1,1.4,1.1c0.9,0,1.3-0.3,1.3-0.9s-0.5-0.8-1.5-1c-1.9-0.3-2.6-0.8-2.6-2.2
		s1.3-2.1,2.7-2.1c1.4,0,2.6,0.5,2.8,2.1h-1.5c-0.1-0.6-0.5-0.9-1.3-0.9c-0.7,0-1.1,0.3-1.1,0.8s0.3,0.7,1.5,0.9
		c1.7,0.3,2.7,0.7,2.7,2.2c0,1.4-1,2.3-2.8,2.3C89.2,19,88.1,18.2,88,16.7z"/>
	<path class="st0" d="M101.9,17.4l1.2-2.3h-1.3l-0.7,1.3l-1.1-1.3c0.9-0.4,1.4-1,1.4-1.8c0-0.9-0.8-1.6-1.8-1.6s-2,0.6-2,1.8
		c0,0.4,0.2,0.9,0.5,1.3c-1.1,0.5-1.5,1.2-1.5,2.1c0,1.2,1,2.1,2.4,2.1c0.8,0,1.4-0.2,1.9-0.8l0.6,0.7h1.7L101.9,17.4z M99.7,12.8
		c0.4,0,0.6,0.2,0.6,0.6c0,0.5-0.2,0.8-0.8,1.1c-0.3-0.4-0.5-0.6-0.5-0.9C99,13,99.2,12.8,99.7,12.8z M98.8,15.7l1.4,1.7
		c-0.3,0.3-0.7,0.5-1.1,0.5c-0.7,0-1.1-0.4-1.1-1.1C98,16.2,98.3,15.9,98.8,15.7z"/>
	<path class="st0" d="M58.1,26.2v-0.1c0-2.8,2-4.9,4.9-4.9s4.9,2,4.9,4.9v0.1c0,2.8-1.9,5-4.9,5C60.1,31.1,58.1,29,58.1,26.2z
		 M66,26.2v-0.1c0-2-1.1-3.5-3-3.5s-3,1.4-3,3.5v0.1c0,2.1,1.3,3.5,3,3.5C64.9,29.7,66,28.3,66,26.2z"/>
	<path class="st0" d="M68.8,27.6v-0.1c0-2.2,1.6-3.7,3.6-3.7c1.6,0,3,0.7,3.2,2.7H74c-0.1-0.9-0.8-1.3-1.6-1.3
		c-1.1,0-1.9,0.9-1.9,2.3v0.1c0,1.5,0.8,2.4,2,2.4c0.9,0,1.6-0.5,1.7-1.5h1.5c-0.1,1.6-1.4,2.8-3.3,2.8
		C70.3,31.1,68.8,29.8,68.8,27.6z"/>
	<path class="st0" d="M76.5,27.5v-0.1c0-2.2,1.5-3.7,3.5-3.7c1.8,0,3.3,1,3.3,3.6v0.5h-5.2c0.1,1.3,0.7,2.1,1.9,2.1
		c1,0,1.5-0.4,1.6-1.1h1.6c-0.2,1.5-1.4,2.3-3.2,2.3C78,31.1,76.5,29.8,76.5,27.5z M81.8,26.7C81.7,25.5,81.1,25,80,25
		c-1,0-1.6,0.7-1.8,1.8L81.8,26.7L81.8,26.7z"/>
	<path class="st0" d="M84.4,29c0-1.7,1.6-2.2,3.6-2.2h0.9v-0.4c0-0.9-0.3-1.4-1.3-1.4c-0.9,0-1.3,0.4-1.4,1.1h-1.6
		c0.1-1.6,1.4-2.3,3-2.3s2.8,0.6,2.8,2.6V31h-1.6v-0.9c-0.5,0.6-1.1,1-2.2,1C85.5,31.1,84.4,30.5,84.4,29z M88.9,28.5v-0.7h-0.8
		c-1.2,0-2,0.3-2,1.1c0,0.6,0.3,1,1.1,1C88.2,30,88.9,29.4,88.9,28.5z"/>
	<path class="st0" d="M91.6,23.9h1.6V25c0.3-0.7,1.1-1.3,2.3-1.3c1.4,0,2.4,0.8,2.4,2.8V31h-1.6v-4.3c0-1.1-0.4-1.6-1.4-1.6
		c-0.9,0-1.7,0.6-1.7,1.7V31h-1.6C91.6,31,91.6,23.9,91.6,23.9z"/>
	<path class="st0" d="M98.8,28.8h1.5c0.1,0.7,0.4,1.1,1.4,1.1c0.9,0,1.3-0.3,1.3-0.9s-0.5-0.8-1.5-1c-1.9-0.3-2.6-0.8-2.6-2.2
		c0-1.4,1.3-2.1,2.7-2.1c1.4,0,2.6,0.5,2.8,2.1h-1.5c-0.1-0.6-0.5-0.9-1.3-0.9c-0.7,0-1.1,0.3-1.1,0.8s0.3,0.7,1.5,0.9
		c1.7,0.3,2.7,0.7,2.7,2.2c0,1.4-1,2.3-2.8,2.3C99.9,31.1,98.8,30.3,98.8,28.8z"/>
	<path class="st0" d="M35.1,0c-4.8,0-9.1,2.2-12,5.6c2.3,2.3,4.1,5,5.4,8c0.3-0.9,0.8-1.8,1.4-2.5l0,0c0.9-1.2,3.7-3.5,4.8-6
		c0.1-0.2,0.3-0.3,0.5-0.3c0.1,0,0.4,0.1,0.5,0.3c0.8,2.3,3.9,4.6,4.8,6l0,0c1.1,1.2,1.8,2.9,1.8,4.6c0,3.9-3.1,7-7,7
		c-2,0-3.7-0.8-5-2.1c0.1,0.7,0.1,1.3,0.1,2c0,2.6-0.4,5.2-1.2,7.6c1.9,0.8,4,1.3,6.1,1.3c8.7,0,15.7-7,15.7-15.7S43.7,0,35.1,0z"/>
	<path class="st1" d="M21.8,7.3c-4-4-9.4-6.5-15.5-6.5H0v10.9h6.4c6,0,10.9,4.9,10.9,10.9S12.4,33.5,6.4,33.5H0v10.9h6.4
		c9.7,0,18-6.4,20.8-15.2c0.7-2.1,1-4.3,1-6.6C28.2,16.6,25.8,11.2,21.8,7.3z"/>
</g>
</svg>
