<?xml version="1.0" encoding="UTF-8"?>
<!DOCTYPE svg PUBLIC "-//W3C//DTD SVG 1.1//EN" "http://www.w3.org/Graphics/SVG/1.1/DTD/svg11.dtd">
<!-- Creator: CorelDRAW X6 -->
<svg xmlns="http://www.w3.org/2000/svg" xml:space="preserve" width="5.33333in" height="4.33333in" version="1.1" style="shape-rendering:geometricPrecision; text-rendering:geometricPrecision; image-rendering:optimizeQuality; fill-rule:evenodd; clip-rule:evenodd"
viewBox="0 0 5333 4333"
 xmlns:xlink="http://www.w3.org/1999/xlink">
 <defs>
  <style type="text/css">
   <![CDATA[
    .fil0 {fill:black;fill-rule:nonzero}
   ]]>
  </style>
 </defs>
 <g id="Layer_x0020_1">
  <metadata id="CorelCorpID_0Corel-Layer"/>
  <path class="fil0" d="M5333 513c-198,87 -410,145 -630,173 227,-135 400,-348 481,-604 -211,126 -445,215 -693,265 -201,-214 -487,-346 -799,-346 -605,0 -1093,491 -1093,1094 0,87 7,170 25,249 -909,-44 -1713,-480 -2254,-1144 -94,164 -150,351 -150,553 0,379 195,714 486,909 -176,-3 -348,-54 -494,-135 0,3 0,8 0,12 0,531 379,973 876,1074 -89,24 -186,36 -287,36 -70,0 -141,-4 -207,-19 142,433 544,751 1022,762 -372,291 -844,466 -1356,466 -90,0 -176,-4 -262,-15 484,312 1058,491 1677,491 2012,0 3112,-1667 3112,-3111 0,-48 -2,-95 -4,-141 217,-154 399,-346 548,-568z"/>
 </g>
</svg>
